<?xml version="1.0" standalone="no"?>
<!DOCTYPE svg PUBLIC "-//W3C//DTD SVG 20010904//EN"
 "http://www.w3.org/TR/2001/REC-SVG-20010904/DTD/svg10.dtd">
<svg version="1.0" xmlns="http://www.w3.org/2000/svg"
 width="666.000000pt" height="375.000000pt" viewBox="0 0 666.000000 375.000000"
 preserveAspectRatio="xMidYMid meet">

<g transform="translate(0.000000,375.000000) scale(0.100000,-0.100000)"
fill="#000000" stroke="none">
<path d="M3059 2980 c-7 -27 -16 -50 -20 -50 -4 0 -19 20 -33 45 -25 41 -48
56 -59 38 -9 -17 19 -157 32 -161 11 -4 12 7 7 54 l-7 59 26 -37 c14 -21 32
-38 39 -38 7 0 19 21 27 48 l13 47 11 -60 c11 -68 30 -76 29 -12 -1 75 -13
117 -34 117 -14 0 -21 -12 -31 -50z"/>
<path d="M3187 2988 c-8 -24 -22 -60 -31 -80 -14 -32 -14 -38 -2 -38 8 0 18 9
21 20 5 15 15 20 40 20 29 0 36 -4 41 -25 3 -14 12 -25 20 -25 18 0 18 1 -9
90 -19 59 -28 76 -44 78 -16 2 -24 -6 -36 -40z m52 -45 c1 -7 -8 -13 -19 -13
-23 0 -25 12 -8 43 11 21 11 21 19 2 4 -11 8 -26 8 -32z"/>
<path d="M3337 3013 c-7 -13 -31 -153 -26 -157 2 -2 25 -7 52 -11 56 -9 67 10
11 21 -34 6 -35 8 -30 38 16 92 18 116 8 116 -6 0 -13 -3 -15 -7z"/>
<path d="M2833 2978 c-22 -11 -28 -25 -23 -58 3 -21 6 -23 53 -29 33 -5 43
-10 45 -28 3 -18 -3 -23 -32 -29 -43 -7 -48 -24 -8 -24 37 0 72 26 72 54 0 31
-16 42 -68 51 -52 8 -54 34 -4 51 18 5 29 13 26 17 -10 10 -35 8 -61 -5z"/>
<path d="M3450 2933 c-39 -104 -38 -108 11 -121 54 -14 75 1 25 18 -20 6 -36
12 -36 13 0 1 9 26 20 55 11 29 20 61 20 72 0 37 -19 20 -40 -37z"/>
<path d="M2725 2859 c-330 -172 -531 -525 -511 -899 7 -138 23 -210 74 -327
104 -241 320 -448 552 -528 31 -11 35 -16 32 -42 -5 -46 35 -87 83 -87 75 0
114 96 60 149 -30 31 -84 34 -109 6 -16 -18 -21 -18 -55 -6 -118 41 -247 124
-344 219 -359 356 -369 927 -23 1302 76 82 206 178 284 209 23 10 42 21 42 26
0 16 -24 10 -85 -22z m267 -1746 c22 -20 23 -70 1 -95 -22 -24 -69 -24 -83 1
-15 30 -12 56 11 85 24 30 45 33 71 9z"/>
<path d="M3540 2882 c0 -4 21 -18 48 -32 193 -100 348 -259 436 -451 65 -140
80 -214 80 -389 1 -173 -10 -229 -70 -371 -91 -215 -264 -391 -479 -486 -79
-35 -103 -53 -72 -53 29 0 196 90 272 147 124 92 212 202 285 354 57 119 81
220 87 369 9 208 -40 390 -149 557 -88 135 -208 246 -350 324 -71 39 -88 45
-88 31z"/>
<path d="M3025 2715 c-151 -34 -252 -90 -366 -204 -71 -71 -94 -102 -133 -181
-61 -125 -79 -213 -73 -355 7 -163 51 -283 150 -413 144 -190 432 -309 655
-272 80 14 188 46 233 71 15 8 44 24 66 36 22 12 66 45 97 74 306 280 318 759
26 1048 -171 169 -429 247 -655 196z m125 -13 c0 -4 -12 -16 -27 -27 -30 -23
-123 -143 -123 -159 0 -6 14 -31 30 -55 25 -37 30 -54 30 -103 0 -75 -12 -98
-50 -98 -34 0 -67 28 -74 62 -22 112 -30 144 -40 150 -17 12 -105 9 -128 -3
-18 -10 -20 -17 -14 -70 14 -121 59 -194 145 -237 l56 -27 0 -67 0 -68 -45 5
c-61 7 -112 -13 -124 -48 -21 -60 28 -163 103 -219 23 -17 40 -32 37 -35 -6
-6 -87 36 -113 59 -25 23 -47 15 -38 -13 5 -15 1 -19 -14 -19 -12 0 -21 -7
-21 -15 0 -8 5 -15 10 -15 6 0 10 -4 10 -10 0 -5 -7 -10 -15 -10 -28 0 -15
-38 22 -69 37 -31 96 -54 165 -67 47 -8 104 11 135 45 20 22 23 23 14 4 -6
-12 -28 -35 -48 -52 -34 -28 -44 -31 -108 -31 -39 0 -81 6 -95 13 -214 115
-203 110 -217 90 -17 -22 -18 -21 -74 95 -48 100 -69 188 -69 297 0 279 171
539 425 648 87 37 255 70 255 49z m33 -474 c-2 -265 -6 -484 -8 -487 -3 -2 -5
215 -5 482 0 268 3 487 8 487 4 0 6 -217 5 -482z m146 462 c339 -81 557 -374
538 -725 -8 -165 -86 -358 -140 -348 -15 3 -41 -8 -75 -30 -127 -86 -243 -99
-317 -36 -37 33 -54 68 -61 132 l-7 55 49 53 c47 50 128 98 142 84 4 -4 -4
-15 -18 -26 -80 -62 -104 -86 -121 -123 -23 -51 -24 -94 -3 -125 21 -29 89
-60 131 -61 50 0 139 38 168 71 32 39 33 63 3 56 -21 -5 -21 -5 -5 7 9 7 17
21 17 30 0 17 -25 22 -35 6 -3 -5 -14 -10 -23 -9 -14 0 -13 3 6 16 22 16 30
43 12 43 -6 0 -42 -16 -81 -36 -39 -19 -73 -34 -75 -31 -2 2 20 24 50 50 62
53 89 103 89 166 0 34 -5 49 -23 63 -28 23 -100 24 -141 2 -31 -15 -31 -15
-22 8 9 25 11 112 3 141 -4 15 5 22 45 36 90 31 165 153 165 268 0 30 -5 45
-16 50 -26 10 -136 -11 -144 -27 -5 -8 -13 -48 -19 -89 -6 -41 -17 -81 -23
-88 -18 -22 -71 -12 -86 17 -18 35 -10 118 16 169 12 23 22 48 22 55 0 18
-114 172 -137 185 -30 18 22 13 116 -9z m-184 -170 c4 -6 1 -18 -6 -26 -11
-13 -14 -13 -27 0 -8 8 -11 19 -8 25 9 14 33 14 41 1z m100 0 c8 -13 -14 -42
-26 -34 -5 3 -9 14 -9 25 0 20 24 26 35 9z m-233 -667 c28 -15 57 -41 69 -61
24 -42 35 -117 20 -152 -9 -22 -10 -19 -10 25 -2 77 -56 142 -156 186 -25 11
-45 25 -45 31 0 16 68 0 122 -29z"/>
<path d="M3383 1149 c-38 -11 -39 -18 -16 -106 l18 -65 45 7 c45 7 69 19 58
31 -3 3 -22 1 -41 -4 -29 -8 -37 -7 -41 5 -12 29 -6 41 24 47 17 3 30 10 30
16 0 7 -12 9 -34 5 -26 -5 -35 -3 -40 10 -9 23 -1 31 34 38 16 4 30 11 30 17
0 12 -23 12 -67 -1z"/>
<path d="M3299 1099 l-21 -43 -19 25 c-10 13 -19 27 -19 32 0 4 -16 7 -35 7
l-35 0 0 -59 c0 -64 -13 -85 -52 -79 -21 3 -23 8 -26 76 -4 93 -26 95 -30 4
-4 -74 8 -98 48 -107 46 -10 80 16 81 63 1 20 4 51 8 67 l6 30 33 -53 c17 -29
32 -63 32 -77 0 -16 6 -25 15 -25 10 0 15 11 15 35 0 19 9 57 19 85 24 62 9
76 -20 19z"/>
<path d="M2900 961 c0 -10 72 -41 95 -41 21 0 19 20 -2 20 -10 0 -27 7 -37 15
-22 17 -56 20 -56 6z"/>
</g>
</svg>
